Coordinates
version=1
nRows=19
nColumns=24
inDegrees=yes

Units are S.I. units (second, meters, Newtons, ...)
Angles are in degrees.

endheader
time	pelvis_tilt	pelvis_list	pelvis_rotation	pelvis_tx	pelvis_ty	pelvis_tz	hip_flexion_r	hip_adduction_r	hip_rotation_r	knee_angle_r	ankle_angle_r	subtalar_angle_r	mtp_angle_r	hip_flexion_l	hip_adduction_l	hip_rotation_l	knee_angle_l	ankle_angle_l	subtalar_angle_l	mtp_angle_l	lumbar_extension	lumbar_bending	lumbar_rotation
      6.23000000	      3.14587375	      9.15169848	     -1.34715458	      0.61945789	      0.88950971	     -0.26511119	     20.17175338	     -9.34009345	     -3.30091352	    -65.91933341	      3.39120736	      1.59518779	      0.00000000	     -0.82496259	     14.88777966	     10.72171692	     -8.33350579	     10.55130425	    -11.18320826	      0.00000000	     -8.40191887	     -7.88776130	    173.12822644
      6.24000000	      3.04870390	      9.01471302	     -1.26757788	      0.62897552	      0.88952816	     -0.26556629	     21.21333190	     -9.09069192	     -3.47788010	    -64.50716583	      4.96241138	      1.75797510	      0.00000000	     -1.62494801	     14.75080215	     10.94797284	     -7.96721608	     10.97314791	    -11.10151273	      0.00000000	     -8.31125683	     -7.64012590	    172.91181926
      6.25000000	      2.93852197	      8.86018998	     -1.14639667	      0.63842983	      0.88946456	     -0.26598159	     22.14930076	     -8.82558496	     -3.67369190	    -62.80351809	      6.32037528	      1.90871989	      0.00000000	     -2.38502744	     14.58999263	     11.21710290	     -7.65070318	     11.39593327	    -11.04288323	      0.00000000	     -8.23102072	     -7.39142263	    172.65129047
      6.26000000	      2.80598124	      8.68168942	     -1.00292739	      0.64783197	      0.88930059	     -0.26632988	     22.98789612	     -8.52984238	     -3.86388347	    -60.80909278	      7.50295611	      2.10571440	      0.00000000	     -3.09236931	     14.39950430	     11.52117054	     -7.38374831	     11.81898940	    -11.03261123	      0.00000000	     -8.14786306	     -7.12648397	    172.37568606
      6.27000000	      2.61936839	      8.48394556	     -0.90951450	      0.65718412	      0.88898856	     -0.26648545	     23.77647609	     -8.15444536	     -3.91764198	    -58.52422238	      8.52553318	      2.40677832	      0.00000000	     -3.70240785	     14.18679776	     11.75046633	     -7.16305628	     12.22211942	    -11.07103485	      0.00000000	     -8.01151999	     -6.86744539	    172.14935625
      6.28000000	      2.44509999	      8.26507646	     -0.61175653	      0.66650019	      0.88867846	     -0.26684740	     24.35382038	     -7.84690928	     -4.17198449	    -55.91389273	      9.42139585	      2.73941868	      0.00000000	     -4.32183910	     13.93832605	     12.27421249	     -7.00089698	     12.63603568	    -11.16252040	      0.00000000	     -7.92987796	     -6.58426822	    171.71244992
      6.29000000	      2.24868330	      8.02677209	     -0.39337348	      0.67578222	      0.88823765	     -0.26703463	     24.84050185	     -7.45158822	     -4.24806195	    -53.01013976	     10.14469315	      3.12273631	      0.00000000	     -4.89238884	     13.67226547	     12.74380963	     -6.85290946	     13.00879542	    -11.39992689	      0.00000000	     -7.83343159	     -6.29095151	    171.33070730
      6.30000000	      2.00508210	      7.79409978	     -0.16685155	      0.68510036	      0.88765508	     -0.26714707	     25.23642554	     -7.03891339	     -4.23973412	    -49.82106830	     10.67957272	      3.47033720	      0.00000000	     -5.39862490	     13.40434032	     13.19129350	     -6.73000326	     13.38341811	    -11.59747027	      0.00000000	     -7.66836890	     -6.01804331	    171.00089972
      6.31000000	      1.68506415	      7.59692950	     -0.00443406	      0.69446438	      0.88683914	     -0.26715040	     25.60131204	     -6.61474305	     -4.04251134	    -46.38413226	     11.02857098	      3.81457594	      0.00000000	     -5.79751857	     13.18031162	     13.47120602	     -6.63510774	     13.76649587	    -11.72578435	      0.00000000	     -7.39734830	     -5.78735247	    170.78832222
      6.32000000	      1.37233228	      7.40233614	      0.24261450	      0.70393997	      0.88596669	     -0.26716621	     25.77990377	     -6.20661820	     -3.83675272	    -42.66858153	     11.10552334	      3.87768635	      0.00000000	     -6.21861728	     12.93928696	     13.87028525	     -6.54814933	     14.15770960	    -11.84873009	      0.00000000	     -7.11982681	     -5.57378208	    170.45724042
      6.33000000	      1.25914945	      7.25598878	      0.59352179	      0.71345612	      0.88528219	     -0.26718898	     25.56979151	     -5.88753838	     -3.67191806	    -38.70910787	     10.95601197	      3.59875647	      0.00000000	     -6.89240607	     12.71105392	     14.53305171	     -6.42808260	     14.45465672	    -12.05386638	      0.00000000	     -7.12344016	     -5.45647598	    169.95112478
      6.34000000	      1.12473028	      7.15237045	      0.86055424	      0.72318994	      0.88441682	     -0.26716338	     25.28277636	     -5.59699525	     -3.34476176	    -34.62090823	     10.61470104	      3.29697619	      0.00000000	     -7.54807072	     12.53568243	     15.00284719	     -6.30041578	     14.70884953	    -12.23040413	      0.00000000	     -7.04361137	     -5.35839749	    169.60181933
      6.35000000	      0.78856596	      7.15309211	      1.16905788	      0.73303686	      0.88309022	     -0.26716436	     25.14586861	     -5.43898044	     -2.93865417	    -30.51019320	     10.12380799	      2.83437668	      0.00000000	     -7.94498650	     12.47443135	     15.39974330	     -6.27605262	     15.05122282	    -12.26447687	      0.00000000	     -6.68473513	     -5.39254044	    169.26837897
      6.36000000	      0.86425917	      7.19588067	      1.51140646	      0.74299828	      0.88224814	     -0.26711272	     24.44478757	     -5.37520270	     -2.64700570	    -26.34391262	      9.54146521	      2.22286161	      0.00000000	     -8.83366029	     12.40689399	     15.95248675	     -6.19785190	     15.27830320	    -12.31651695	      0.00000000	     -6.86138725	     -5.48542607	    168.84266940
      6.37000000	      0.74276136	      7.31667000	      1.90345166	      0.75308872	      0.88104702	     -0.26714332	     23.94163636	     -5.45475571	     -2.45063593	    -22.33549584	      8.91754220	      1.79268275	      0.00000000	     -9.47578927	     12.42184992	     16.47101344	     -6.21455821	     15.50621557	    -12.27140199	      0.00000000	     -6.77037493	     -5.67007364	    168.39795772
      6.38000000	      0.58079771	      7.46749420	      2.35608449	      0.76335529	      0.87973955	     -0.26726151	     23.46849094	     -5.63671966	     -2.56272226	    -18.54341122	      8.39410093	      1.62637732	      0.00000000	    -10.04297042	     12.46182662	     16.97595711	     -6.33234791	     15.75778183	    -12.15319231	      0.00000000	     -6.59111899	     -5.87417139	    167.97558602
      6.39000000	      0.75642284	      7.59673831	      2.76615838	      0.77368042	      0.87888448	     -0.26729423	     22.61474069	     -5.80387329	     -2.83440815	    -14.99570181	      8.04388249	      1.91685155	      0.00000000	    -10.97352438	     12.44172797	     17.54517770	     -6.45688397	     15.94987546	    -12.03889873	      0.00000000	     -6.87056318	     -6.02069417	    167.50346126
      6.40000000	      0.59772909	      7.69686652	      3.20467253	      0.78424705	      0.87761542	     -0.26728259	     22.15790418	     -5.94936328	     -3.27445292	    -11.84891052	      7.75233486	      2.49588980	      0.00000000	    -11.49506907	     12.40226536	     18.03007764	     -6.69807638	     16.20130901	    -11.78858891	      0.00000000	     -6.65894783	     -6.15178866	    167.17405978
      6.41000000	      0.90687813	      7.78318248	      3.62797250	      0.79483433	      0.87705646	     -0.26715378	     21.22273013	     -6.07246811	     -4.12412105	     -9.13544850	      7.82468398	      3.68060490	      0.00000000	    -12.49776858	     12.29214162	     18.49077807	     -6.97913221	     16.35092022	    -11.49424501	      0.00000000	     -7.08070196	     -6.24792118	    166.75321525
